<svg height="31" viewBox="0 0 28 31" width="28" xmlns="http://www.w3.org/2000/svg"><path d="m10.4102564 0c-1.79487178 7.04545374-4.3076923 8.80681718-10.4102564 10.9204533v4.9318211l12.9230769 15.1477256v-4.5795449c5.3846154-1.7613635 8.6153846-5.636363 10.7692308-10.215908zm2.8717949 31c6.8205128-1.7613634 11.4871795-3.5227269 13.6410256-4.5795449v-3.8640087c-3.3203836 2.5968134-9.6502431 6.2381504-13.6410256 7.7390082zm.7179487-29.23864009-.6730769.66051129 10.926282 13.3313089c.1658713.2037898.2020631.5012136.0897436.7375886-2.1871482 4.6503517-5.5335466 8.781982-11.0608974 10.6342317l.0112.7926136c5.7435897-1.4090908 10.0400641-6.4289766 13.988782-11.0085215l-13.2820512-15.14773259zm-2.6923256 3.40163314 2.8717948 3.17045418c.1817703.20342339.2276221.5138954.1121795.75958799-1.4859959 3.28107488-3.4490651 5.22056848-6.4278846 6.68216198-.28189897.1395704-.65586051.0680591-.8637641-.1651102l-3.23076923-3.5227339c-.32047795-.353717-.12667846-1.013013.33653846-1.1448863 3.47197846-1.02214736 4.60248205-2.13781257 6.00160257-5.57031184.4177026-.53436596.6728974-.5501513 1.2003026-.20916191zm-.3701744 1.71732935c-1.22460872 2.55466391-2.78237795 4.0447562-5.40705128 5.0198858l2.15384615 2.3448151c2.33345183-1.235128 3.83915183-2.7333296 5.09294873-5.32812443zm15.3685897 12.2414653c-3.3225302 3.7833382-8.2560871 8.2237002-13.0240384 9.7645762v.7045454c5.3846154-1.4090908 10.4102564-5.2840904 14.7179487-8.8068172z" fill="#f00"/></svg>