<svg height="27" viewBox="0 0 18 27" width="18" xmlns="http://www.w3.org/2000/svg"><g fill="#f00"><path d="m8.7752 5.3984c1.490727 0 2.6992-1.208473 2.6992-2.6992s-1.208473-2.6992-2.6992-2.6992-2.6992 1.208473-2.6992 2.6992 1.208473 2.6992 2.6992 2.6992z"/><path d="m5.1296 14.9744c-.6074653.2248414-1.28772151.1234368-1.8032-.2688-.3559433-.2715533-.6944766-.5651982-1.0136-.8792l-2.3128 7.4536s1.1872.1344 2.9512.2968z"/><path d="m11.5808 14.756c-.0171342-.053539-.0377104-.1059148-.0616-.1568.364-2.016.7672-4.0544 1.204-6.0816.7672.4872 1.232 1.0304 1.2712 1.5064.056.5992-.5208 1.3888-1.624 2.24-.4130249.310753-.5802753.8513032-.4149192 1.3410117.1653561.4897084.626057.8182232 1.1429192.8149883.2632058.0004374.5191654-.0861951.728-.2464 1.8312-1.4 2.6936-2.8616 2.5648-4.3512-.113378-.96988346-.5846647-1.86253244-1.3216-2.5032-.5452651-.50088025-1.1578568-.92309736-1.82-1.2544-.1074294-.05354253-.2227674-.08946749-.3416-.1064-.1164592-.04246467-.2401623-.06149591-.364-.056h-7.5376c-.12603475-.00371406-.2515825.01721057-.3696.0616-.11155991.01753765-.21942949.05349417-.3192.1064-.66305993.32743892-1.27592215.74795669-1.82 1.2488-.73485575.64158468-1.20408496 1.53411853-1.316 2.5032-.1344 1.4896.728 2.9512 2.5592 4.3512.52661739.3988842 1.27629087.2989277 1.68-.224.39763669-.5280748.29514903-1.2779845-.2296-1.68-1.12-.84-1.68-1.6296-1.624-2.24.0392-.4704.4984-1.0136 1.26-1.5008.4256 1.9936.8232 3.9984 1.1872 5.9808-.02762596.0563999-.05193402.1143653-.0728.1736l-3.3264 10.08c-.12906976.3898555-.09768313.8150492.08723185 1.1817272s.50815412.6446911.89836815.7726728c.15686088.0532435.32155461.079746.4872.0784.6631592.0048058 1.25656337-.4110266 1.4784-1.036l3.1864-9.688 3.2144 9.744c.2086349.6362461.8032222 1.0657959 1.4728 1.0640056.1654237-.0014291.3296808-.0278613.4872-.0784056.390214-.1279817.7134532-.4059948.8983681-.7726728.184915-.366678.2163017-.7918717.0872319-1.1817272zm-1.5008-3.2816-1.2936-.6664-1.2712.6664.2408-1.3944-1.036-1.0192 1.4168-.2072.6384-1.288.6328 1.288 1.4168.2072-1.0136 1.0192z"/><path d="m7.5432 21.9184c.81386667.0448 1.63146667.0784 2.4528.1008l-1.2432-3.7688z"/><path d="m14.2408 14.7056c-.3217924.2464021-.7147289.3819652-1.12.3864-.2517544.0004438-.5010974-.0490441-.7336-.1456l2.2848 7.0056c1.1136476-.0322197 2.2129957-.259671 3.248-.672l-2.52-7.5992c-.3623143.3679134-.7496383.7103303-1.1592 1.0248z"/></g></svg>