<svg height="23" viewBox="0 0 30 23" width="30" xmlns="http://www.w3.org/2000/svg"><path d="m411.615 828h-25.23c-.632541 0-1.239175.258584-1.68645.718866-.447274.460282-.69855 1.084559-.69855 1.735496v18.091276c0 1.355507 1.067801 2.454362 2.385 2.454362h25.23c1.317199 0 2.385-1.098855 2.385-2.454362v-18.091276c0-1.355507-1.067801-2.454362-2.385-2.454362zm-22.620291 18.613596c0 .213405-.170558.386404-.380952.386404h-3.232805c-.210394 0-.380952-.172999-.380952-.386404v-2.227192c0-.213405.170558-.386404.380952-.386404h3.238096c.210394 0 .380952.172999.380952.386404zm0-6c0 .213405-.170558.386404-.380952.386404h-3.232805c-.210394 0-.380952-.172999-.380952-.386404v-2.227192c0-.213405.170558-.386404.380952-.386404h3.238096c.210394 0 .380952.172999.380952.386404zm0-6.000693c0 .213788-.170558.387097-.380952.387097h-3.232805c-.210394 0-.380952-.173309-.380952-.387097v-2.236559c.005731-.209577.174622-.376425.380952-.376344h3.238096c.210394 0 .380952.173309.380952.387097zm13.575244 6.206241-6.232385 4.043874c-.272764.177831-.612991.182845-.890135.013119-.277144-.169727-.448161-.487835-.447433-.832263v-8.087748c-.000728-.344428.170289-.662536.447433-.832263.277144-.169726.617371-.164712.890135.013119l6.232385 4.043874c.266705.172134.430047.483264.430047.819144s-.163342.64701-.430047.819144zm10.430047 5.794452c0 .213405-.170784.386404-.381457.386404h-3.237086c-.210673 0-.381457-.172999-.381457-.386404v-2.227192c0-.213405.170784-.386404.381457-.386404h3.237086c.210673 0 .381457.172999.381457.386404zm0-6c0 .213405-.170784.386404-.381457.386404h-3.237086c-.210673 0-.381457-.172999-.381457-.386404v-2.227192c0-.213405.170784-.386404.381457-.386404h3.237086c.210673 0 .381457.172999.381457.386404zm0-5.99931c0 .213024-.170784.385714-.381457.385714h-3.237086c-.210673 0-.381457-.17269-.381457-.385714v-2.228572c0-.213024.170784-.385714.381457-.385714h3.237086c.210673 0 .381457.17269.381457.385714z" fill="#f00" transform="translate(-384 -828)"/></svg>