<svg height="19" viewBox="0 0 19 19" width="19" xmlns="http://www.w3.org/2000/svg"><path d="m108.684286 651.201646-4.659682-4.665295c2.342857-3.049383 2.108571-7.454046-.702858-10.242798-1.535873-1.537723-3.5142854-2.293553-5.5187299-2.293553s-3.9828572.75583-5.5187303 2.293553c-3.0457144 3.049383-3.0457144 8.001372 0 11.050754 1.5358731 1.537723 3.5142858 2.293553 5.5187303 2.293553 1.6660318 0 3.3320639-.521262 4.7117459-1.589849l4.685715 4.639232c.208254.208505.468571.312757.75492.312757.260318 0 .546667-.104252.754921-.312757.390476-.390947.390476-1.068587-.026032-1.485597zm-11.0346731-4.007202c-1.493813 0-2.8610318-.582001-3.9244241-1.619482-2.1521036-2.150875-2.1521036-5.668189 0-7.844368 1.0380735-1.037481 2.4306111-1.619483 3.9244241-1.619483 1.4938131 0 2.8610321.582002 3.9244241 1.619483s1.620407 2.429223 1.620407 3.922184c0 1.49296-.582333 2.859399-1.620407 3.922184-1.038073 1.062785-2.4559299 1.619482-3.9244241 1.619482z" fill="#f00" transform="translate(-90 -634)"/></svg>